<svg xmlns="http://www.w3.org/2000/svg" xmlns:xlink="http://www.w3.org/1999/xlink" width="1920" zoomAndPan="magnify" viewBox="0 0 1440 809.999993" height="1080" preserveAspectRatio="xMidYMid meet" version="1.0"><defs><g/><clipPath id="4dd3c89094"><path d="M 638 345 L 778.777344 345 L 778.777344 398 L 638 398 Z M 638 345 " clip-rule="nonzero"/></clipPath><clipPath id="53becc66f6"><path d="M 549 224.988281 L 654 224.988281 L 654 433.085938 L 549 433.085938 Z M 549 224.988281 " clip-rule="nonzero"/></clipPath></defs><path fill="#e12828" d="M 420.128906 370.375 L 428.121094 370.199219 L 436.652344 350.09375 L 445.359375 391.90625 L 451.933594 369.664062 L 465.257812 369.839844 L 471.660156 345.289062 L 483.738281 370.019531 L 492.628906 345.289062 L 504.886719 390.121094 L 526.746094 350.984375 L 539.003906 370.019531 L 554.023438 370.019531 L 554.023438 356.984375 L 560.144531 356.984375 L 560.144531 377.492188 L 538.382812 377.40625 L 527.546875 361.078125 L 504.667969 397.242188 L 491.472656 360.546875 L 484.273438 376.691406 L 471.878906 353.074219 L 465.75 374.425781 L 453.621094 374.023438 L 445.757812 395.375 L 435.632812 359.609375 L 430.566406 373.089844 L 420.128906 372.820312 L 420.128906 370.375 " fill-opacity="1" fill-rule="nonzero"/><g clip-path="url(#4dd3c89094)"><path fill="#e12828" d="M 778.402344 370.375 L 770.40625 370.199219 L 761.875 350.09375 L 753.167969 391.90625 L 746.59375 369.664062 L 733.265625 369.839844 L 726.867188 345.289062 L 714.785156 370.019531 L 705.902344 345.289062 L 693.636719 390.121094 L 671.78125 350.984375 L 659.519531 370.019531 L 644.5 370.019531 L 644.5 356.984375 L 638.386719 364.710938 L 638.386719 377.492188 L 660.140625 377.40625 L 670.980469 361.078125 L 693.863281 397.242188 L 707.054688 360.546875 L 714.253906 376.691406 L 726.644531 353.074219 L 732.777344 374.425781 L 744.90625 374.023438 L 752.769531 395.375 L 762.898438 359.609375 L 767.964844 373.089844 L 778.402344 372.820312 L 778.402344 370.375 " fill-opacity="1" fill-rule="nonzero"/></g><g clip-path="url(#53becc66f6)"><path fill="#e12828" d="M 648.304688 352.59375 C 639.421875 360.960938 629.5 366.597656 626.90625 368.011719 C 624.304688 366.597656 614.382812 360.960938 605.503906 352.59375 C 593.523438 341.304688 588.792969 330.269531 591.4375 319.785156 C 593.914062 309.980469 600.535156 305.007812 611.121094 305.007812 C 618.71875 305.007812 625.78125 307.683594 626.5625 307.992188 C 626.78125 308.078125 627.023438 308.078125 627.246094 307.992188 C 627.738281 307.796875 630.726562 306.664062 634.769531 305.851562 C 621.921875 278.285156 606.316406 249.703125 601.332031 224.957031 C 592.375 269.367188 549.21875 326.121094 549.21875 367.222656 C 549.21875 433.085938 601.332031 433.085938 601.332031 433.085938 C 601.332031 433.085938 653.441406 433.085938 653.441406 367.222656 C 653.441406 361.636719 652.636719 355.757812 651.234375 349.660156 C 650.304688 350.636719 649.34375 351.617188 648.304688 352.59375 " fill-opacity="1" fill-rule="nonzero"/></g><path fill="#e12828" d="M 640.980469 337.0625 L 630.589844 337.0625 L 630.589844 347.46875 L 623.214844 347.46875 L 623.214844 337.0625 L 612.824219 337.0625 L 612.824219 329.679688 L 623.214844 329.679688 L 623.214844 319.277344 L 630.589844 319.277344 L 630.589844 329.679688 L 640.980469 329.679688 Z M 658.652344 321.539062 C 656.4375 312.757812 650.507812 308.304688 641.03125 308.304688 C 634.230469 308.304688 627.910156 310.703125 627.210938 310.976562 C 627.011719 311.054688 626.796875 311.054688 626.597656 310.976562 C 625.902344 310.703125 619.574219 308.304688 612.773438 308.304688 C 603.296875 308.304688 597.371094 312.757812 595.152344 321.539062 C 592.785156 330.921875 597.019531 340.804688 607.746094 350.910156 C 615.695312 358.398438 624.574219 363.445312 626.90625 364.710938 C 629.230469 363.445312 638.113281 358.402344 646.0625 350.910156 C 656.785156 340.804688 661.023438 330.921875 658.652344 321.539062 " fill-opacity="1" fill-rule="nonzero"/><path fill="#ad0808" d="M 648.261719 386.753906 C 648.261719 386.753906 641.75 425.664062 603.558594 427.015625 C 565.371094 428.363281 553.6875 391.925781 552.566406 376.179688 C 551.441406 360.4375 572.332031 389 584.914062 387.878906 C 597.492188 386.753906 608.277344 376.855469 621.53125 381.804688 C 634.785156 386.753906 637.480469 391.25 648.261719 386.753906 " fill-opacity="1" fill-rule="nonzero"/><g fill="#e12828" fill-opacity="1"><g transform="translate(363.907225, 529.126338)"><g><path d="M 62.375 -111.953125 C 73.25 -111.953125 81.457031 -109.550781 87 -104.75 C 92.550781 -99.957031 95.328125 -92.976562 95.328125 -83.8125 C 95.328125 -78.800781 94.125 -74.320312 91.71875 -70.375 C 89.320312 -66.425781 85.78125 -63.332031 81.09375 -61.09375 C 84.601562 -59.925781 87.878906 -58.140625 90.921875 -55.734375 C 93.960938 -53.335938 96.441406 -50.269531 98.359375 -46.53125 C 100.273438 -42.800781 101.234375 -38.273438 101.234375 -32.953125 C 101.234375 -26.441406 100.113281 -21.050781 97.875 -16.78125 C 95.632812 -12.519531 92.703125 -9.160156 89.078125 -6.703125 C 85.453125 -4.253906 81.453125 -2.523438 77.078125 -1.515625 C 72.710938 -0.503906 68.34375 0 63.96875 0 L 15.671875 0 L 15.671875 -111.953125 Z M 59.5 -95.328125 L 32.953125 -95.328125 L 32.953125 -65.578125 L 61.421875 -65.578125 C 65.785156 -65.679688 69.644531 -67.007812 73 -69.5625 C 76.363281 -72.125 78.046875 -75.753906 78.046875 -80.453125 C 78.046875 -85.785156 76.257812 -89.597656 72.6875 -91.890625 C 69.113281 -94.179688 64.71875 -95.328125 59.5 -95.328125 Z M 62.21875 -48.9375 L 32.953125 -48.9375 L 32.953125 -16.640625 L 63.015625 -16.640625 C 69.085938 -16.640625 74.039062 -18 77.875 -20.71875 C 81.71875 -23.4375 83.640625 -27.617188 83.640625 -33.265625 C 83.640625 -37.316406 82.519531 -40.460938 80.28125 -42.703125 C 78.050781 -44.941406 75.304688 -46.539062 72.046875 -47.5 C 68.796875 -48.457031 65.519531 -48.9375 62.21875 -48.9375 Z M 62.21875 -48.9375 "/></g></g></g><g fill="#e12828" fill-opacity="1"><g transform="translate(469.307167, 529.126338)"><g><path d="M 11.515625 0 L 11.515625 -118.359375 L 27.984375 -118.359375 L 27.984375 0 Z M 11.515625 0 "/></g></g></g><g fill="#e12828" fill-opacity="1"><g transform="translate(505.773284, 529.126338)"><g><path d="M 91.96875 -42.0625 C 91.96875 -33.53125 90.070312 -25.984375 86.28125 -19.421875 C 82.5 -12.867188 77.378906 -7.726562 70.921875 -4 C 64.472656 -0.269531 57.253906 1.59375 49.265625 1.59375 C 41.265625 1.59375 34.007812 -0.269531 27.5 -4 C 21 -7.726562 15.851562 -12.867188 12.0625 -19.421875 C 8.28125 -25.984375 6.390625 -33.53125 6.390625 -42.0625 C 6.390625 -50.59375 8.28125 -58.132812 12.0625 -64.6875 C 15.851562 -71.25 21 -76.394531 27.5 -80.125 C 34.007812 -83.851562 41.265625 -85.71875 49.265625 -85.71875 C 57.253906 -85.71875 64.472656 -83.851562 70.921875 -80.125 C 77.378906 -76.394531 82.5 -71.25 86.28125 -64.6875 C 90.070312 -58.132812 91.96875 -50.59375 91.96875 -42.0625 Z M 75.171875 -42.0625 C 75.273438 -47.71875 74.179688 -52.703125 71.890625 -57.015625 C 69.597656 -61.335938 66.476562 -64.695312 62.53125 -67.09375 C 58.59375 -69.488281 54.171875 -70.6875 49.265625 -70.6875 C 44.359375 -70.6875 39.90625 -69.488281 35.90625 -67.09375 C 31.90625 -64.695312 28.757812 -61.335938 26.46875 -57.015625 C 24.175781 -52.703125 23.082031 -47.71875 23.1875 -42.0625 C 23.082031 -36.519531 24.175781 -31.585938 26.46875 -27.265625 C 28.757812 -22.953125 31.90625 -19.566406 35.90625 -17.109375 C 39.90625 -14.660156 44.359375 -13.4375 49.265625 -13.4375 C 54.171875 -13.4375 58.59375 -14.660156 62.53125 -17.109375 C 66.476562 -19.566406 69.597656 -22.953125 71.890625 -27.265625 C 74.179688 -31.585938 75.273438 -36.519531 75.171875 -42.0625 Z M 75.171875 -42.0625 "/></g></g></g><g fill="#e12828" fill-opacity="1"><g transform="translate(600.617247, 529.126338)"><g><path d="M 91.96875 -42.0625 C 91.96875 -33.53125 90.070312 -25.984375 86.28125 -19.421875 C 82.5 -12.867188 77.378906 -7.726562 70.921875 -4 C 64.472656 -0.269531 57.253906 1.59375 49.265625 1.59375 C 41.265625 1.59375 34.007812 -0.269531 27.5 -4 C 21 -7.726562 15.851562 -12.867188 12.0625 -19.421875 C 8.28125 -25.984375 6.390625 -33.53125 6.390625 -42.0625 C 6.390625 -50.59375 8.28125 -58.132812 12.0625 -64.6875 C 15.851562 -71.25 21 -76.394531 27.5 -80.125 C 34.007812 -83.851562 41.265625 -85.71875 49.265625 -85.71875 C 57.253906 -85.71875 64.472656 -83.851562 70.921875 -80.125 C 77.378906 -76.394531 82.5 -71.25 86.28125 -64.6875 C 90.070312 -58.132812 91.96875 -50.59375 91.96875 -42.0625 Z M 75.171875 -42.0625 C 75.273438 -47.71875 74.179688 -52.703125 71.890625 -57.015625 C 69.597656 -61.335938 66.476562 -64.695312 62.53125 -67.09375 C 58.59375 -69.488281 54.171875 -70.6875 49.265625 -70.6875 C 44.359375 -70.6875 39.90625 -69.488281 35.90625 -67.09375 C 31.90625 -64.695312 28.757812 -61.335938 26.46875 -57.015625 C 24.175781 -52.703125 23.082031 -47.71875 23.1875 -42.0625 C 23.082031 -36.519531 24.175781 -31.585938 26.46875 -27.265625 C 28.757812 -22.953125 31.90625 -19.566406 35.90625 -17.109375 C 39.90625 -14.660156 44.359375 -13.4375 49.265625 -13.4375 C 54.171875 -13.4375 58.59375 -14.660156 62.53125 -17.109375 C 66.476562 -19.566406 69.597656 -22.953125 71.890625 -27.265625 C 74.179688 -31.585938 75.273438 -36.519531 75.171875 -42.0625 Z M 75.171875 -42.0625 "/></g></g></g><g fill="#e12828" fill-opacity="1"><g transform="translate(695.461192, 529.126338)"><g><path d="M 90.203125 -118.359375 L 90.203125 0 L 73.734375 0 L 73.734375 -11.828125 C 71.273438 -8.523438 67.644531 -5.460938 62.84375 -2.640625 C 58.050781 0.179688 52.617188 1.59375 46.546875 1.59375 C 38.972656 1.59375 32.144531 -0.269531 26.0625 -4 C 19.988281 -7.726562 15.191406 -12.894531 11.671875 -19.5 C 8.148438 -26.113281 6.390625 -33.632812 6.390625 -42.0625 C 6.390625 -50.59375 8.148438 -58.132812 11.671875 -64.6875 C 15.191406 -71.25 19.9375 -76.394531 25.90625 -80.125 C 31.875 -83.851562 38.59375 -85.71875 46.0625 -85.71875 C 52.03125 -85.71875 57.441406 -84.492188 62.296875 -82.046875 C 67.148438 -79.597656 70.960938 -76.71875 73.734375 -73.40625 L 73.734375 -118.359375 Z M 48.78125 -12.640625 C 53.894531 -12.640625 58.367188 -13.914062 62.203125 -16.46875 C 66.046875 -19.03125 69.035156 -22.550781 71.171875 -27.03125 C 73.304688 -31.507812 74.375 -36.519531 74.375 -42.0625 C 74.375 -47.71875 73.304688 -52.753906 71.171875 -57.171875 C 69.035156 -61.597656 66.046875 -65.085938 62.203125 -67.640625 C 58.367188 -70.203125 53.894531 -71.484375 48.78125 -71.484375 C 43.769531 -71.484375 39.34375 -70.203125 35.5 -67.640625 C 31.664062 -65.085938 28.65625 -61.597656 26.46875 -57.171875 C 24.28125 -52.753906 23.1875 -47.71875 23.1875 -42.0625 C 23.1875 -36.519531 24.28125 -31.507812 26.46875 -27.03125 C 28.65625 -22.550781 31.664062 -19.03125 35.5 -16.46875 C 39.34375 -13.914062 43.769531 -12.640625 48.78125 -12.640625 Z M 48.78125 -12.640625 "/></g></g></g><g fill="#e12828" fill-opacity="1"><g transform="translate(793.344002, 529.126338)"><g><path d="M 125.703125 -99.484375 L 125.703125 -81.890625 L 110.359375 -81.890625 L 110.359375 0 L 89.25 0 L 89.25 -47.5 C 87.863281 -48.988281 86.367188 -50.210938 84.765625 -51.171875 C 83.171875 -52.140625 81.410156 -52.625 79.484375 -52.625 C 77.785156 -52.625 75.972656 -51.957031 74.046875 -50.625 C 72.128906 -49.289062 71.171875 -46.488281 71.171875 -42.21875 C 71.171875 -40.40625 71.332031 -38.703125 71.65625 -37.109375 L 53.578125 -35.984375 C 52.722656 -41.210938 50.828125 -45.398438 47.890625 -48.546875 C 44.960938 -51.691406 41.046875 -53.265625 36.140625 -53.265625 C 33.160156 -53.265625 30.789062 -52.488281 29.03125 -50.9375 C 27.269531 -49.394531 26.390625 -47.34375 26.390625 -44.78125 C 26.390625 -40.945312 27.90625 -37.960938 30.9375 -35.828125 C 33.976562 -33.691406 37.6875 -31.929688 42.0625 -30.546875 L 35.984375 -12.640625 C 26.285156 -15.304688 18.632812 -19.382812 13.03125 -24.875 C 7.4375 -30.363281 4.640625 -37.265625 4.640625 -45.578125 C 4.640625 -50.910156 5.941406 -55.492188 8.546875 -59.328125 C 11.160156 -63.171875 14.65625 -66.128906 19.03125 -68.203125 C 23.40625 -70.285156 28.203125 -71.328125 33.421875 -71.328125 C 39.179688 -71.328125 44.0625 -70.445312 48.0625 -68.6875 C 52.0625 -66.925781 56.085938 -64.179688 60.140625 -60.453125 C 61.421875 -63.765625 63.472656 -66.269531 66.296875 -67.96875 C 69.117188 -69.675781 72.128906 -70.53125 75.328125 -70.53125 C 78.097656 -70.53125 80.65625 -70.101562 83 -69.25 C 85.351562 -68.394531 87.539062 -67.222656 89.5625 -65.734375 C 89.351562 -68.503906 89.25 -71.171875 89.25 -73.734375 L 89.25 -81.890625 L -1.59375 -81.890625 L -1.59375 -99.484375 Z M 125.703125 -99.484375 "/></g></g></g><g fill="#e12828" fill-opacity="1"><g transform="translate(917.456857, 529.126338)"><g><path d="M 50.21875 -99.484375 L 50.21875 -81.890625 L 34.859375 -81.890625 L 34.859375 0 L 13.75 0 L 13.75 -71.015625 C 12.46875 -74.316406 10.65625 -76.953125 8.3125 -78.921875 C 5.96875 -80.898438 2.929688 -81.890625 -0.796875 -81.890625 L -1.59375 -81.890625 L -1.59375 -99.484375 L 1.59375 -99.484375 C 4.050781 -99.484375 6.34375 -98.84375 8.46875 -97.5625 C 10.601562 -96.28125 12.578125 -93.5625 14.390625 -89.40625 C 14.179688 -89.9375 14.019531 -91.160156 13.90625 -93.078125 C 13.800781 -95.003906 13.75 -96.660156 13.75 -98.046875 L 13.75 -110.03125 L 31.03125 -110.03125 L 34.703125 -99.484375 Z M 50.21875 -99.484375 "/></g></g></g><g fill="#e12828" fill-opacity="1"><g transform="translate(962.559703, 529.126338)"><g><path d="M 77.09375 0 L 77.09375 -62.53125 C 74.101562 -66.050781 70.925781 -69.359375 67.5625 -72.453125 C 64.207031 -75.546875 60.554688 -78.078125 56.609375 -80.046875 C 52.671875 -82.015625 48.460938 -83 43.984375 -83 C 39.828125 -83 36.390625 -82.195312 33.671875 -80.59375 C 30.953125 -79 28.414062 -77.03125 26.0625 -74.6875 C 27.769531 -75.4375 29.632812 -76.023438 31.65625 -76.453125 C 33.6875 -76.878906 35.984375 -77.09375 38.546875 -77.09375 C 45.691406 -77.09375 51.15625 -75.117188 54.9375 -71.171875 C 58.71875 -67.222656 60.609375 -62.476562 60.609375 -56.9375 C 60.609375 -50.539062 58.289062 -44.675781 53.65625 -39.34375 C 49.019531 -34.007812 41.957031 -28.675781 32.46875 -23.34375 L 20.3125 -40.46875 C 26.5 -43.238281 31.429688 -45.925781 35.109375 -48.53125 C 38.785156 -51.144531 40.625 -54 40.625 -57.09375 C 40.625 -58.90625 40.0625 -60.316406 38.9375 -61.328125 C 37.820312 -62.347656 35.929688 -62.859375 33.265625 -62.859375 C 29.109375 -62.859375 24.414062 -61.472656 19.1875 -58.703125 L 2.40625 -72.125 C 8.050781 -80.34375 14.125 -87.140625 20.625 -92.515625 C 27.132812 -97.898438 34.65625 -100.59375 43.1875 -100.59375 C 49.582031 -100.59375 55.441406 -99.207031 60.765625 -96.4375 C 66.097656 -93.664062 71.644531 -89.613281 77.40625 -84.28125 C 77.300781 -85.5625 77.222656 -86.972656 77.171875 -88.515625 C 77.117188 -90.066406 77.09375 -91.75 77.09375 -93.5625 L 77.09375 -110.03125 L 94.515625 -110.03125 L 98.046875 -99.484375 L 113.5625 -99.484375 L 113.5625 -81.890625 L 98.203125 -81.890625 L 98.203125 0 Z M 77.09375 0 "/></g></g></g><g fill="#e12828" fill-opacity="1"><g transform="translate(1070.998514, 529.126338)"><g><path d="M 65.421875 -99.484375 L 65.421875 -81.890625 L 56.296875 -81.890625 C 51.390625 -79.546875 46.832031 -76.453125 42.625 -72.609375 C 38.414062 -68.773438 34.976562 -64.296875 32.3125 -59.171875 C 29.644531 -54.054688 28.3125 -48.351562 28.3125 -42.0625 C 28.3125 -35.664062 29.269531 -30.65625 31.1875 -27.03125 C 33.101562 -23.40625 35.5 -20.867188 38.375 -19.421875 C 41.257812 -17.984375 44.140625 -17.265625 47.015625 -17.265625 C 48.941406 -17.265625 50.8125 -17.453125 52.625 -17.828125 C 54.4375 -18.203125 56.515625 -18.976562 58.859375 -20.15625 L 66.859375 -4.3125 C 63.335938 -2.289062 59.867188 -0.929688 56.453125 -0.234375 C 53.046875 0.453125 49.472656 0.796875 45.734375 0.796875 C 33.796875 0.796875 24.332031 -2.851562 17.34375 -10.15625 C 10.363281 -17.457031 6.875 -27.929688 6.875 -41.578125 C 6.875 -50.003906 8.601562 -57.707031 12.0625 -64.6875 C 15.53125 -71.675781 20.304688 -77.515625 26.390625 -82.203125 C 23.722656 -81.992188 19.882812 -81.890625 14.875 -81.890625 L -1.59375 -81.890625 L -1.59375 -99.484375 Z M 65.421875 -99.484375 "/></g></g></g><g fill="#e12828" fill-opacity="1"><g transform="translate(1134.8143, 529.126338)"><g><path d="M 102.203125 -99.484375 L 102.203125 -81.890625 L 86.84375 -81.890625 L 86.84375 0 L 65.734375 0 C 59.765625 -8.632812 52.0625 -15.695312 42.625 -21.1875 C 33.1875 -26.675781 22.5 -30.4375 10.5625 -32.46875 L 2.5625 -51.34375 C 11.945312 -56.5625 22.179688 -61.625 33.265625 -66.53125 C 44.359375 -71.4375 55.394531 -75.382812 66.375 -78.375 L 66.375 -81.890625 L -1.59375 -81.890625 L -1.59375 -99.484375 Z M 29.421875 -44.46875 C 35.398438 -43.289062 41.640625 -40.992188 48.140625 -37.578125 C 54.640625 -34.171875 60.554688 -29.695312 65.890625 -24.15625 C 65.785156 -27.238281 65.734375 -30.273438 65.734375 -33.265625 L 65.734375 -59.34375 C 59.441406 -57.3125 53.390625 -55.066406 47.578125 -52.609375 C 41.765625 -50.160156 35.710938 -47.445312 29.421875 -44.46875 Z M 29.421875 -44.46875 "/></g></g></g></svg>